<svg width="24" height="24" viewBox="0 0 24 24" fill="none" xmlns="http://www.w3.org/2000/svg">
  <path d="M17.6569 16.6569L13.4142 12.4142M10 5H12C16.9706 5 21 9.02944 21 14V19C21 19.5523 20.5523 20 20 20H4C3.44772 20 3 19.5523 3 19V14C3 9.02944 7.02944 5 12 5H14" stroke="#7E41FF" stroke-width="2" stroke-linecap="round"/>
  <path d="M12 9C12.5523 9 13 8.55228 13 8C13 7.44772 12.5523 7 12 7C11.4477 7 11 7.44772 11 8C11 8.55228 11.4477 9 12 9Z" stroke="#7E41FF" stroke-width="2" stroke-linecap="round"/>
  <path d="M12 15C15.3137 15 18 12.3137 18 9C18 5.68629 15.3137 3 12 3C8.68629 3 6 5.68629 6 9C6 12.3137 8.68629 15 12 15Z" stroke="#7E41FF" stroke-width="2"/>
</svg> 