<!DOCTYPE svg PUBLIC "-//W3C//DTD SVG 1.1//EN" "http://www.w3.org/Graphics/SVG/1.1/DTD/svg11.dtd">

<!-- Uploaded to: SVG Repo, www.svgrepo.com, Transformed by: SVG Repo Mixer Tools -->
<svg width="24" height="24" viewBox="0 0 64 64" fill="none" xmlns="http://www.w3.org/2000/svg">
  <path 
    d="M56,0H8C5.789,0,4,1.789,4,4v56c0,2.211,1.789,4,4,4h20V48h8v16h20c2.211,0,4-1.789,4-4V4 
       C60,1.789,58.211,0,56,0z M28,40h-8v-8h8V40z M28,24h-8v-8h8V24z M44,40h-8v-8h8V40z M44,24h-8v-8h8V24z" 
    fill="#7E41FF"
  />
</svg>
